<?xml version="1.0" encoding="utf-8"?>
<!-- Generator: Adobe Illustrator 24.3.0, SVG Export Plug-In . SVG Version: 6.00 Build 0)  -->
<svg version="1.1" id="Layer_1" xmlns="http://www.w3.org/2000/svg" xmlns:xlink="http://www.w3.org/1999/xlink" x="0px" y="0px"
	 viewBox="0 0 1408.2 1144.3" style="enable-background:new 0 0 1408.2 1144.3;" xml:space="preserve">
<style type="text/css">
	.st0{fill:#7E22CE;}
	.st1{fill:url(#SVGID_1_);}
	.st2{fill:#111827;}
</style>
<path class="st0" d="M922.7,149v56.1H595.5c-10.5-18.6-30.5-31.3-53.3-31.3c-33.8,0-61.2,27.5-61.2,61.2s27.5,61.2,61.2,61.2
	c22.9,0,42.8-12.6,53.3-31.3h327.2v208.7H744L600.1,326.1h-240c-10.5-18.6-30.5-31.3-53.3-31.3c-33.8,0-61.2,27.5-61.2,61.2
	c0,33.8,27.5,61.2,61.2,61.2c22.9,0,42.8-12.6,53.3-31.3h214.7l143.9,147.6h204v62.2H171.4c-10.5-18.6-30.5-31.3-53.3-31.3
	c-33.8,0-61.2,27.5-61.2,61.2c0,33.8,27.5,61.2,61.2,61.2c22.9,0,42.8-12.6,53.3-31.3h751.3v48.6H786.8L629.3,860.6H413.4
	c-10.5-18.6-30.5-31.3-53.3-31.3c-33.8,0-61.2,27.5-61.2,61.2c0,33.7,27.5,61.2,61.2,61.2c22.9,0,42.8-12.6,53.3-31.3H654
	l157.5-156.5h111.3v212.6c236.2-137.7,314.5-253.4,314.5-449s0-341.1,0-341.1C1040,139.6,922.7,149,922.7,149z M542.2,264.6
	c-16.3,0-29.5-13.2-29.5-29.5s13.2-29.5,29.5-29.5s29.5,13.2,29.5,29.5C571.7,251.3,558.4,264.6,542.2,264.6z M306.8,385.6
	c-16.3,0-29.5-13.2-29.5-29.5s13.2-29.5,29.5-29.5s29.5,13.2,29.5,29.5C336.4,372.3,323.1,385.6,306.8,385.6z M118.1,655.2
	c-16.3,0-29.5-13.2-29.5-29.5s13.2-29.5,29.5-29.5s29.5,13.2,29.5,29.5S134.3,655.2,118.1,655.2z M360,920.1
	c-16.3,0-29.5-13.2-29.5-29.5s13.2-29.5,29.5-29.5s29.5,13.2,29.5,29.5C389.5,906.9,376.3,920.1,360,920.1z"/>
<linearGradient id="SVGID_1_" gradientUnits="userSpaceOnUse" x1="647.0851" y1="381.1194" x2="647.0851" y2="1209.3914" gradientTransform="matrix(1 0 0 -1 0 1357.6086)">
	<stop  offset="0" style="stop-color:#111827"/>
	<stop  offset="0.6342" style="stop-color:#7E22CE"/>
	<stop  offset="1" style="stop-color:#7A22C8"/>
</linearGradient>
<path class="st1" d="M922.7,149v56.1H595.5c-10.5-18.6-30.5-31.3-53.3-31.3c-33.8,0-61.2,27.5-61.2,61.2s27.5,61.2,61.2,61.2
	c22.9,0,42.8-12.6,53.3-31.3h327.2v208.7H744L600.1,326.1h-240c-10.5-18.6-30.5-31.3-53.3-31.3c-33.8,0-61.2,27.5-61.2,61.2
	c0,33.8,27.5,61.2,61.2,61.2c22.9,0,42.8-12.6,53.3-31.3h214.7l143.9,147.6h204v62.2H171.4c-10.5-18.6-30.5-31.3-53.3-31.3
	c-33.8,0-61.2,27.5-61.2,61.2c0,33.8,27.5,61.2,61.2,61.2c22.9,0,42.8-12.6,53.3-31.3h751.3v48.6H786.8L629.3,860.6H413.4
	c-10.5-18.6-30.5-31.3-53.3-31.3c-33.8,0-61.2,27.5-61.2,61.2c0,33.7,27.5,61.2,61.2,61.2c22.9,0,42.8-12.6,53.3-31.3H654
	l157.5-156.5h111.3v212.6c236.2-137.7,314.5-253.4,314.5-449s0-341.1,0-341.1C1040,139.6,922.7,149,922.7,149z M542.2,264.6
	c-16.3,0-29.5-13.2-29.5-29.5s13.2-29.5,29.5-29.5s29.5,13.2,29.5,29.5C571.7,251.3,558.4,264.6,542.2,264.6z M306.8,385.6
	c-16.3,0-29.5-13.2-29.5-29.5s13.2-29.5,29.5-29.5s29.5,13.2,29.5,29.5C336.4,372.3,323.1,385.6,306.8,385.6z M118.1,655.2
	c-16.3,0-29.5-13.2-29.5-29.5s13.2-29.5,29.5-29.5s29.5,13.2,29.5,29.5S134.3,655.2,118.1,655.2z M360,920.1
	c-16.3,0-29.5-13.2-29.5-29.5s13.2-29.5,29.5-29.5s29.5,13.2,29.5,29.5C389.5,906.9,376.3,920.1,360,920.1z"/>
<path class="st2" d="M920.5,120.9c5-0.4,124.1-9.2,323.2,38.2l21.6,5.2v363.3c0,208.2-100.1,338.8-342.6,480.1l-28.2-15.8
	c-25.6-15.8-69.2-45.4-133.8-97.4l-61.8,58.7c0,0,72,70.4,223.7,151.8c147.1-86,422.4-222.2,422.4-552.3s0-449,0-449
	s-132.9-64.2-422.3-64.2c-179.9,0-348.1,31.3-425.9,68.8V120c0,0,87.2-24.2,125.5,28.2C622.3,148.2,769,120.9,920.5,120.9z"/>
</svg>
